<?xml version="1.0" encoding="UTF-8"?>
<svg id="Layer_1" data-name="Layer 1" xmlns="http://www.w3.org/2000/svg" height="auto" width="auto" viewBox="0 0 1280 720">
  <path d="m0,720V0h1280v720H0Zm1015.95-442.01c2.04-2.47,4.65-4.68,5.93-7.5,1-2.21,1.42-6.04.17-7.57-1.5-1.83-5.29-3.09-7.65-2.58-2.66.58-5.15,3.12-7.14,5.33-3.88,4.31-7.32,9.02-11.02,13.5-2.36,2.85-4.79,5.67-7.34,8.35-4.35,4.56-9.01,8.85-13.21,13.55-3.94,4.41-7.25,9.4-11.23,13.76-5.34,5.85-11.16,11.28-16.6,17.05-1.98,2.09-3.23,4.87-5.23,6.94-5.05,5.22-10.6,9.97-15.42,15.37-3.34,3.74-6.37,4.88-11.4,3.32-13.63-4.22-26.73-3.9-37.84,6.84-.75.72-2.28.62-3.45.91-2.29.58-4.92.63-6.82,1.83-15.66,9.94-31.33,19.88-49.61,24.37-3.47.85-7.32.12-11,.12-.04-.62-.09-1.25-.13-1.87,2.74-1.21,5.48-2.41,8.21-3.64,2.99-1.34,6.21-2.34,8.89-4.15,4.99-3.38,10.06-6.83,14.34-11.02,3.44-3.37,2.95-14.82.12-18.98-3.18-4.67-11.98-7.46-18.14-5.57-13.47,4.11-23.93,12.21-31.24,24.24-7.72,12.7-4.43,24.51,8.58,31.61,7.56,4.12,15.64,3.66,23.56,2.15,14.91-2.84,28.23-9.59,40.87-17.8,1.79-1.16,3.86-1.9,6.37-3.12-.89,3.98-1.81,7.1-2.25,10.29-.71,5.11.39,9.81,4.44,13.38,4.07,3.59,8.76,3.92,13.17,1.11,7.4-4.7,14.54-9.8,21.71-14.85,2.4-1.69,4.56-3.71,6.83-5.58.38.36.76.71,1.14,1.07-1.4,2.14-2.81,4.27-4.19,6.43-8.62,13.51-17.72,26.75-22.48,42.33-3.07,10.04-1.57,16.19,5.81,20.45,3.03,1.74,6.96,3.81,9.18-.56,1.03-2.03.61-5.88-.72-7.83-3.17-4.63-1.74-8.51.14-12.9,12.36-28.81,33.41-52.13,49.69-78.46,4.82-7.79,11.89-14.17,17.74-21.35,12.59-15.47,25.12-30.98,37.53-46.6,2.59-3.26,4.56-7.03,6.81-10.57.96-.61,1.92-1.21,2.88-1.82Zm-575.12,115.37c.1,2.04.1,3.19.22,4.34.86,8.29,8.44,16.16,18.19,10.29,7.49-4.51,14.44-9.92,21.59-14.99,2.27-1.61,4.4-3.43,6.6-5.15.34.33.68.65,1.03.98-.91,1.46-1.81,2.93-2.74,4.38-9.14,14.17-18.82,28.03-23.86,44.41-3.09,10.05-1.63,16.29,5.84,20.37,2.18,1.19,5.67,1.73,7.86.83,5.3-2.16,2.25-6.57.6-9.07-3.06-4.65-2.22-8.69.13-12.86,6.84-12.16,13.43-24.49,20.84-36.29,6.35-10.11,13.75-19.57,20.63-29.36,5.95-8.48,11.53-17.23,17.8-25.46,5.93-7.78,12.63-14.98,18.83-22.56,9.92-12.12,19.7-24.34,29.55-36.52,4.41-5.46,9.09-10.73,13.16-16.43,1.97-2.77,2.22-6.41-1.07-8.82-2.76-2.02-5.73-2.71-8.6.27-6.57,6.82-13.46,13.36-19.81,20.38-6.6,7.29-12.58,15.13-19.09,22.49-4.48,5.06-9.4,9.73-14.13,14.57-.93.95-1.95,1.84-2.79,2.86-4.47,5.5-8.62,11.29-13.43,16.48-5.48,5.91-11.75,11.1-17.26,16.99-2.48,2.66-4.79,3.51-8.14,2.58-3.72-1.04-7.45-2.38-11.25-2.71-9.87-.85-19.41.17-26.78,7.88-3.26,3.41-5.71,7.75-9.36,10.59-4.34,3.36-9.48,5.78-14.46,8.21-8.24,4.02-16.63,7.73-26.18,12.13,2.13-12.68,11.09-22.28,9.13-34.18-5.96-4.62-11.96-4.9-18.22-1.32-9.83,5.63-19.68,11.21-29.53,16.79-1.81,1.03-3.68,1.96-6.76,3.6,2.08-4.12,3.34-6.8,4.76-9.4,2.31-4.27,1.63-6.47-2.86-8.81-5.66-2.95-6.5-2.72-8.99,2.26-.71,1.43-1.68,2.73-2.58,4.17-1.62-.54-3.01-1.47-4.32-1.36-2.58.21-5.01-1-7.83.9-15.38,10.38-31.17,20.13-49.47,24.59-3.48.85-7.34.12-11.03.12-.05-.6-.1-1.2-.15-1.8,2.72-1.22,5.45-2.44,8.17-3.67,2.98-1.35,6.21-2.34,8.89-4.15,5-3.37,10.04-6.83,14.36-10.99,3.4-3.28,2.97-14.87.18-18.99-3.17-4.69-11.96-7.5-18.15-5.61-13.46,4.12-23.95,12.19-31.27,24.22-7.73,12.71-4.42,24.48,8.53,31.65,7.44,4.12,15.51,3.81,23.16,2.36,14.84-2.81,28.22-9.6,40.94-17.64,3.33-2.11,6.79-4.01,10.87-6.4-3.57,7.71-6.87,14.37-9.67,21.22-.64,1.56-.18,4.19.78,5.67,2.41,3.73,7.19,3.77,11.33.75,12.2-8.88,24.38-17.8,36.73-26.47,4.67-3.28,9.77-5.94,15.65-9.47-2.55,7.38-4.86,13.46-6.75,19.68-2.54,8.36,5.44,17.76,13.98,16.04,6.39-1.29,12.66-3.52,18.73-5.96,5.75-2.31,11.16-5.46,17.48-8.61Zm191.39-15.69c-.31-.33-.63-.66-.94-.99,1.59-3.22,3.11-6.47,4.78-9.65,1.61-3.05,1.36-5.58-1.37-7.93-2.9-2.49-5.59-2.54-8.85-.54-11.7,7.15-24.65,9.09-38.08,8.31-2.22-.13-4.46-.91-4.94-4.42-.59-4.25-6.95-6.83-11.22-5.31-2.65.94-5.69,7.21-4.09,9.6,2.99,4.46,1.45,8.1-1.28,11.62-3.32,4.28-6.52,8.75-10.47,12.39-2.71,2.49-6.05,5.38-11.45,3.75.84-2.52,1.12-5.09,2.43-6.92,4.8-6.7,9.95-13.15,14.97-19.69,2.24-2.92,3.94-5.9.56-9.15-2.9-2.8-6.43-3.83-9.44-.89-9.26,9.03-17.69,18.78-21.47,31.54-3.15,10.65,8.16,21.95,19,19.14,13.67-3.54,22.02-13.42,28.65-24.91,2.18-3.78,4.72-3.81,8.17-3.54,3.51.28,7.08.44,10.58.14,5.72-.49,11.39-1.4,17.88-2.23-3.83,7.63-7.24,14.35-10.59,21.1-1.6,3.23-1.72,6.52,1.05,9.09,2.79,2.59,6.07,2.38,9.21.37,1.68-1.08,3.36-2.17,4.9-3.43,8.18-6.69,16.13-13.69,24.53-20.11,10.16-7.76,20.01-16.14,32.63-19.95,1.39,3.62,6.23,5.69,9.97,3.77,3.1-1.58,4.64-4,3.13-8.14-2.72-7.47-9.04-10.35-17.66-8.03-10.71,2.88-18.8,10.08-27.73,15.91-4.39,2.87-8.58,6.04-12.87,9.07Zm109.04,12.95c-.12.48-.24.97-.37,1.45-4.38,0-8.81-.44-13.11.1-7.76.97-15.52,2.18-23.1,4.04-2.19.54-4.18,3.43-5.36,5.7-.36.7,1.98,3.63,3.6,4.33,2.59,1.12,5.66,1.82,8.46,1.65,12.12-.73,24.23-1.82,36.33-2.81,7.68-.63,15.35-1.33,23.02-1.95,3.69-.3,5.72-2.4,6.39-5.87.68-3.52-.66-6.32-3.77-7.97-3.07-1.62-6.32-2.94-9.54-4.27-9.1-3.77-18.22-7.47-28.23-11.58,1.7-.78,2.25-1.2,2.85-1.28,9.86-1.38,19.73-2.72,29.6-4.07,3.78-.52,7.31-1.3,7.08-6.34-.21-4.66-2.42-6.91-7.69-6.63-7.18.38-14.43.81-21.48,2.11-6.84,1.27-13.64,3.24-20.16,5.69-6.26,2.35-10.49,10.76-2.95,17.12,3.96,3.34,8.93,5.49,13.48,8.12,1.59.91,3.29,1.63,4.94,2.44Z" fill="#3f3f3f"/>
  <path d="m440.82,393.35c-6.32,3.16-11.73,6.3-17.48,8.61-6.07,2.44-12.34,4.67-18.73,5.96-8.54,1.72-16.52-7.68-13.98-16.04,1.89-6.21,4.2-12.3,6.75-19.68-5.89,3.53-10.99,6.19-15.65,9.47-12.35,8.68-24.53,17.59-36.73,26.47-4.14,3.01-8.92,2.98-11.33-.75-.96-1.48-1.42-4.11-.78-5.67,2.81-6.85,6.1-13.51,9.67-21.22-4.08,2.39-7.54,4.3-10.87,6.4-12.72,8.05-26.11,14.83-40.94,17.64-7.65,1.45-15.72,1.76-23.16-2.36-12.95-7.17-16.25-18.94-8.53-31.65,7.32-12.03,17.8-20.11,31.27-24.22,6.19-1.89,14.97.92,18.15,5.61,2.78,4.12,3.22,15.71-.18,18.99-4.32,4.16-9.36,7.62-14.36,10.99-2.68,1.81-5.9,2.8-8.89,4.15-2.72,1.23-5.44,2.45-8.17,3.67.05.6.1,1.2.15,1.8,3.69,0,7.55.73,11.03-.12,18.3-4.46,34.09-14.21,49.47-24.59,2.82-1.9,5.25-.69,7.83-.9,1.31-.11,2.7.81,4.32,1.36.9-1.44,1.87-2.74,2.58-4.17,2.49-4.97,3.33-5.21,8.99-2.26,4.5,2.35,5.17,4.55,2.86,8.81-1.41,2.6-2.68,5.28-4.76,9.4,3.09-1.64,4.95-2.58,6.76-3.6,9.85-5.58,19.71-11.16,29.53-16.79,6.26-3.58,12.26-3.31,18.22,1.32,1.96,11.9-7,21.49-9.13,34.18,9.55-4.4,17.94-8.11,26.18-12.13,4.98-2.43,10.12-4.85,14.46-8.21,3.66-2.83,6.1-7.18,9.36-10.59,7.37-7.71,16.92-8.73,26.78-7.88,3.8.33,7.53,1.67,11.25,2.71,3.35.94,5.65.08,8.14-2.58,5.51-5.9,11.78-11.08,17.26-16.99,4.81-5.18,8.95-10.98,13.43-16.48.84-1.03,1.86-1.91,2.79-2.86,4.73-4.84,9.65-9.51,14.13-14.57,6.51-7.37,12.49-15.21,19.09-22.49,6.35-7.02,13.24-13.56,19.81-20.38,2.87-2.98,5.84-2.28,8.6-.27,3.29,2.41,3.05,6.05,1.07,8.82-4.07,5.7-8.75,10.97-13.16,16.43-9.85,12.17-19.63,24.4-29.55,36.52-6.2,7.58-12.9,14.77-18.83,22.56-6.27,8.23-11.85,16.99-17.8,25.46-6.87,9.79-14.27,19.24-20.63,29.36-7.42,11.8-14,24.13-20.84,36.29-2.35,4.17-3.19,8.21-.13,12.86,1.65,2.5,4.7,6.91-.6,9.07-2.19.89-5.68.36-7.86-.83-7.47-4.08-8.93-10.32-5.84-20.37,5.05-16.39,14.73-30.25,23.86-44.41.93-1.45,1.83-2.92,2.74-4.38-.34-.33-.68-.65-1.03-.98-2.2,1.72-4.33,3.54-6.6,5.15-7.15,5.07-14.1,10.48-21.59,14.99-9.75,5.86-17.33-2.01-18.19-10.29-.12-1.14-.12-2.3-.22-4.34Zm14.16,2.31c11.89-7.81,21.63-16.11,30.96-25.94-8.98-2.1-16.68-2.64-22.61,3.99-5.24,5.86-7.89,12.97-8.36,21.95Zm-183.97-19.97c9.64.46,26.22-10.27,25.58-16.85-11.54,1.05-18.12,9.3-25.58,16.85Z" fill="#fdfdfd"/>
  <path d="m1013.06,279.81c-2.25,3.54-4.22,7.3-6.81,10.57-12.41,15.61-24.94,31.13-37.53,46.6-5.85,7.18-12.92,13.56-17.74,21.35-16.28,26.33-37.33,49.65-49.69,78.46-1.88,4.38-3.31,8.26-.14,12.9,1.33,1.95,1.75,5.79.72,7.83-2.22,4.37-6.15,2.31-9.18.56-7.38-4.25-8.88-10.4-5.81-20.45,4.76-15.58,13.86-28.82,22.48-42.33,1.38-2.16,2.79-4.29,4.19-6.43-.38-.36-.76-.71-1.14-1.07-2.27,1.87-4.43,3.89-6.83,5.58-7.17,5.04-14.32,10.14-21.71,14.85-4.41,2.8-9.1,2.47-13.17-1.11-4.05-3.56-5.15-8.26-4.44-13.38.44-3.19,1.36-6.32,2.25-10.29-2.51,1.21-4.58,1.95-6.37,3.12-12.65,8.21-25.97,14.96-40.87,17.8-7.92,1.51-16,1.97-23.56-2.15-13.01-7.1-16.3-18.91-8.58-31.61,7.31-12.03,17.77-20.13,31.24-24.24,6.17-1.88,14.96.9,18.14,5.57,2.83,4.15,3.32,15.61-.12,18.98-4.28,4.19-9.35,7.64-14.34,11.02-2.67,1.81-5.9,2.81-8.89,4.15-2.73,1.23-5.47,2.43-8.21,3.64.04.62.09,1.25.13,1.87,3.68,0,7.53.73,11-.12,18.28-4.48,33.95-14.43,49.61-24.37,1.9-1.2,4.53-1.26,6.82-1.83,1.17-.29,2.7-.19,3.45-.91,11.11-10.74,24.21-11.06,37.84-6.84,5.04,1.56,8.06.42,11.4-3.32,4.83-5.4,10.38-10.15,15.42-15.37,2-2.07,3.25-4.85,5.23-6.94,5.44-5.77,11.25-11.19,16.6-17.05,3.99-4.37,7.29-9.35,11.23-13.76,4.2-4.7,8.86-8.98,13.21-13.55,2.56-2.68,4.98-5.49,7.34-8.35,3.7-4.48,7.14-9.18,11.02-13.5,1.99-2.21,4.48-4.75,7.14-5.33,2.36-.52,6.15.74,7.65,2.58,1.25,1.53.83,5.36-.17,7.57-1.28,2.82-3.89,5.03-5.93,7.5-.96.61-1.92,1.21-2.88,1.82Zm-102.24,91.12c-8.87-3.48-16.55-3.77-22.46,2.82-5.25,5.85-7.85,12.96-8.26,20.78l1.2,1.14c9.84-8.25,19.68-16.49,29.52-24.74Zm-84.07-12.26c-11.63,1.61-18.43,9.31-25.78,17.31,11.02-.62,26.18-10.55,25.78-17.31Z" fill="#fdfdfd"/>
  <path d="m632.21,377.66c4.28-3.03,8.48-6.2,12.87-9.07,8.93-5.83,17.02-13.03,27.73-15.91,8.62-2.32,14.95.56,17.66,8.03,1.51,4.14-.04,6.56-3.13,8.14-3.75,1.91-8.58-.16-9.97-3.77-12.62,3.81-22.47,12.19-32.63,19.95-8.39,6.42-16.34,13.41-24.53,20.11-1.54,1.26-3.23,2.35-4.9,3.43-3.14,2.01-6.42,2.22-9.21-.37-2.77-2.57-2.65-5.86-1.05-9.09,3.35-6.75,6.76-13.47,10.59-21.1-6.49.83-12.17,1.74-17.88,2.23-3.5.3-7.07.15-10.58-.14-3.45-.28-5.99-.24-8.17,3.54-6.63,11.5-14.98,21.38-28.65,24.91-10.84,2.81-22.15-8.49-19-19.14,3.77-12.76,12.2-22.51,21.47-31.54,3.01-2.93,6.53-1.91,9.44.89,3.37,3.26,1.67,6.23-.56,9.15-5.01,6.55-10.16,13-14.97,19.69-1.31,1.83-1.58,4.4-2.43,6.92,5.41,1.63,8.74-1.26,11.45-3.75,3.95-3.63,7.15-8.11,10.47-12.39,2.73-3.52,4.27-7.16,1.28-11.62-1.6-2.39,1.44-8.66,4.09-9.6,4.27-1.52,10.63,1.06,11.22,5.31.48,3.51,2.72,4.29,4.94,4.42,13.43.78,26.38-1.16,38.08-8.31,3.26-1.99,5.95-1.95,8.85.54,2.73,2.35,2.98,4.87,1.37,7.93-1.68,3.17-3.19,6.43-4.78,9.65.31.33.63.66.94.99Z" fill="#fdfdfd"/>
  <path d="m741.26,390.61c-1.65-.81-3.35-1.52-4.94-2.44-4.55-2.62-9.52-4.78-13.48-8.12-7.54-6.36-3.31-14.77,2.95-17.12,6.52-2.45,13.31-4.42,20.16-5.69,7.05-1.3,14.3-1.73,21.48-2.11,5.27-.28,7.48,1.97,7.69,6.63.22,5.04-3.3,5.82-7.08,6.34-9.87,1.35-19.73,2.69-29.6,4.07-.6.08-1.15.5-2.85,1.28,10.01,4.1,19.13,7.81,28.23,11.58,3.22,1.33,6.46,2.64,9.54,4.27,3.11,1.64,4.45,4.45,3.77,7.97-.67,3.47-2.7,5.57-6.39,5.87-7.68.63-15.35,1.33-23.02,1.95-12.11.99-24.21,2.08-36.33,2.81-2.8.17-5.87-.54-8.46-1.65-1.62-.7-3.97-3.63-3.6-4.33,1.18-2.28,3.16-5.16,5.36-5.7,7.58-1.86,15.34-3.07,23.1-4.04,4.31-.54,8.74-.1,13.11-.1.12-.48.24-.97.37-1.45Z" fill="#fdfdfd"/>
  <path d="m1013.06,279.81c.96-.61,1.92-1.21,2.88-1.82-.96.61-1.92,1.21-2.88,1.82Z" fill="#f7f7f7"/>
  <path d="m454.98,395.66c.47-8.98,3.11-16.09,8.36-21.95,5.93-6.63,13.63-6.09,22.61-3.99-9.34,9.83-19.07,18.13-30.96,25.94Z" fill="#434343"/>
  <path d="m271.01,375.69c7.47-7.55,14.04-15.8,25.58-16.85.64,6.58-15.94,17.31-25.58,16.85Z" fill="#444"/>
  <path d="m910.82,370.92c-9.84,8.25-19.68,16.49-29.52,24.74l-1.2-1.14c.41-7.82,3.01-14.93,8.26-20.78,5.92-6.59,13.6-6.3,22.46-2.82Z" fill="#434343"/>
  <path d="m826.75,358.66c.41,6.76-14.75,16.69-25.78,17.31,7.34-8,14.15-15.7,25.78-17.31Z" fill="#444"/>
</svg>