<?xml version="1.0" encoding="UTF-8"?>
<svg id="Logo" xmlns="http://www.w3.org/2000/svg" height="41" viewBox="0 0 1939.91 476">
  <g>
    <path d="m246,476h-17c-.26-.33-.52-.95-.79-.96-5.71-.14-11.41.22-17.09-.96-3.61-.75-7.37-.74-11.07-1.07-.17-.01-.37.06-.49-.01-3.66-2.02-7.89-2.05-11.8-2.78-6.33-1.17-12.5-2.87-18.61-4.69-11.82-3.51-23.35-7.86-34.39-13.46-8.43-4.27-16.84-8.59-24.82-13.63-9.53-6.02-18.42-12.97-27.13-20.1-4.81-3.94-9.3-8.3-13.73-12.68-3.25-3.21-6.17-6.73-9.22-10.13-2.49-2.78-5.25-5.4-7.32-8.47-1.29-1.92-3.03-3.36-4.32-5.18-3.63-5.12-7.23-10.27-10.6-15.57-3.58-5.63-7.07-11.34-10.23-17.22-3.19-5.96-6.14-12.06-8.55-18.41-1.58-4.17-3.55-8.18-4.88-12.45-1.55-5-3.43-9.9-4.94-14.91-1.47-4.89-2.97-9.86-3.83-14.83-.8-4.66-2.69-9.23-2.21-14.1-2.24-3.25-.2-7.2-1.84-10.72-.89-1.91-.11-4.58-.2-6.91-.02-.44-.62-.86-.95-1.29,0-11.64,0-23.28,0-34.93.33-.26.96-.54.96-.79-.19-6.3.62-12.48,1.96-18.63.43-1.98.65-4.06.92-6.07.29-2.21.72-4.37,1.16-6.54.71-3.52,1.45-7.09,2.39-10.51,1.1-3.98,2.24-8,3.56-11.95,3.22-9.63,6.75-19.13,11.04-28.34,4.24-9.11,8.98-17.98,14.27-26.48,5.93-9.54,12.78-18.52,20.04-27.11,4.23-5,8.87-9.67,13.39-14.42,2.75-2.89,5.35-6.03,8.53-8.38,5.03-3.72,9.5-8.07,14.51-11.82,3.43-2.57,6.98-4.97,10.41-7.53,3.26-2.43,6.67-4.69,10.17-6.78,4.38-2.61,8.93-4.95,13.39-7.44,4.72-2.64,9.81-4.51,14.58-6.95,4.43-2.27,9.4-3.13,13.59-5.82,11.07-3.04,21.81-7.11,33.2-9.19,6.44-1.18,12.94-2.61,19.4-3.52,5.4-.76,10.95-1.95,16.53-1.25h29c2.89.05,5.84-.4,8.58,1,6-.33,11.77,1.32,17.65,2.02,1.22.15,2.37.75,3.59.94,1.28.21,2.65-.02,3.89.29,3.31.81,6.52,2.12,9.86,2.66,4.8.78,9.19,3.25,14.14,3.28,2.03,1.54,4.67,1.9,6.91,2.52,2.41.67,4.12,3.41,7.05,2.46.22-.07.64.72,1.05.98.51.33,1.14.82,1.65.75,1.7-.24,2.73.63,3.83,1.7,1.08,1.05,2.64.22,4.09.98,9.6,4.99,19.6,9.21,28.6,15.33,3.76,2.56,7.79,4.67,11.41,7.53,2.73,2.15,5.43,4.48,8.33,6.33,5.2,3.3,9.73,7.41,14.11,11.54,9.3,8.78,18.58,17.63,26.26,27.96,3.52,4.74,7.61,9.08,10.85,13.98,5.73,8.67,11.1,17.58,15.95,26.79,1.08,2.04,1.98,4.18,3.19,6.76v2.04c.77,1.16,1.45,2.05,1.99,3.01.91,1.62,2.16,3.07,2.04,5.15-.12,2.15,1.83,3.46,2.48,5.45,1.98,6.01,4.88,11.72,5.52,18.15.06.55.69,1.03.95,1.59.39.83.96,1.71.97,2.57.05,5.59,3.28,10.58,3.05,16.21,1.84,2.06,1.32,4.84,1.78,7.19.5,2.6.9,5.33,1.21,8.02.43,3.66.77,7.33,1.19,10.99.02.15.53.24.82.36v41.91c-.17,0-.47-.03-.48,0-.52,2.45-1.16,4.89-1.49,7.36-.46,3.5-.22,7.18-1.2,10.51-.66,2.26-.17,4.6-.97,6.56-1.57,3.83-1.75,7.9-2.86,11.79-.34,1.19-.76,2.37-.97,3.58-.22,1.24-.05,2.39-.87,3.67-.75,1.16-1.42,2.75-1.22,4.49.17,1.58-2.31,6.94-3.1,8.66-.96,2.1-1.54,4.37-2.28,6.57.26.16.51.32.77.47-.83.56-1.65,1.13-2.24,1.53-.16,5.05-2.73,8.85-4.78,12.84-.42.82-1.26,1.66-1.22,2.46.12,2.25-1.73,3.66-2.08,5.66-2.35.42-2.32,2.78-2.88,4.21-2.87,7.3-7.55,13.56-11.61,20.11-3.3,5.34-7.13,10.5-11.21,15.33-5.68,6.72-11.12,13.68-17.59,19.71-3.04,2.84-5.91,5.86-8.85,8.8-.71.71-1.31,1.57-2.14,2.09-4.87,3.1-8.98,7.17-13.51,10.7-3.39,2.64-6.99,4.96-10.43,7.49-3.29,2.42-6.6,4.87-10.17,6.81-5.02,2.74-9.83,5.84-15.04,8.29-3.48,1.64-6.98,3.26-10.47,4.91-5.86,2.76-11.81,5.29-17.96,7.31-4.99,1.64-9.93,3.42-15.02,4.82-3.11.86-6.29,1.72-9.42,2.5-4.69,1.17-9.4,2.34-14.16,3.22-2.01.37-4.05.45-6.1.97-2.11.54-4.37.49-6.59.94-4.41.9-9.02.89-13.55,1.14-2.33.13-4.67-.03-7,.07-.44.02-.86.62-1.29.95Zm-58-123.68c3.13,3.04,6.31,6.14,9.16,8.92,2.46,0,4.31-.1,6.13.03,1.38.1,2.41-.54,3.61-.98,4.74-1.74,7.46-5.48,8.99-9.83,1.68-4.79,3.46-9.59,4.78-14.47,1.38-5.08,4.16-9.77,4.34-15.18,3.06-6.92,4.98-14.24,7.4-21.38,3.57-10.5,7.08-21.02,10.57-31.54,2.28-6.87,4.5-13.77,6.74-20.65,3.43-10.55,6.8-21.12,10.28-31.66,3.23-9.8,6.59-19.55,9.84-29.35,1.46-4.39,2.69-8.86,4.16-13.24,3.87-11.53,7.82-23.03,11.74-34.54.85-2.49,1.43-5.06,2.12-7.58.81-2.94-.07-6.02-.94-8.27-2.54-2.53-4.64-4.64-6.43-6.42-1.35-.58-2.29-1.19-3.3-1.39-7.04-1.38-14.87,3.55-17.21,10.71-1.43,4.39-2.97,8.75-4.41,13.14-1.5,4.56-2.79,9.18-4.06,13.81-2.76,10.09-6.19,20.02-9.8,29.84-2.77,7.52-5.43,15.05-7.88,22.69-1.06,3.31-2.29,6.68-3.57,9.98-1.27,3.29-1.92,6.88-2.75,10.36-1.46,6.12-3.65,12.09-5.91,17.98-2.26,5.88-3.28,12.23-6.62,17.71-2.78,10.44-6.71,20.5-9.98,30.78-.7,2.22-1.03,4.55-1.73,6.77-2.38,7.49-4.7,15-7.34,22.4-1.86,5.21-3.29,10.55-5.57,15.65-1.57,3.52-3.02,7.35-2.4,11.49.17,1.14.03,2.32.03,4.23Zm103-163.2v8.59c.77,1.17,1.39,2.1,2,3.03,2.55,3.91,6.46,6.24,10.61,7.67,3.62,1.25,6.92,2.76,10.16,5.13.72,0,1.89-.33,2.69.06,2.5,1.24,4.84,2.79,7.28,4.15,1.21.67,2.49,1.65,3.76,1.67,1.74.03,3.04.83,4.4,1.55,2.06,1.09,3.92,3.08,6.05,3.38,2.98.42,5.27,1.85,7.73,3.17,1.77.96,3.51,2.8,5.26,2.8,2.66,0,4.5,1.49,6.59,2.37,2.4,1.02,4.3,3.03,7.22,3.17,1.11.05,2.16,1.33,3.8,2.41-1.95.74-3.28,1.15-4.53,1.73-7.43,3.38-14.83,6.81-22.25,10.21-7.98,3.65-15.97,7.28-23.95,10.94-6.02,2.75-12.01,5.57-18.06,8.27-2.77,1.23-4.7,3.41-6.68,5.52-.83.89-1.28,2.13-2.01,3.4v8.61q8.26,9.54,17,9.38c2.41-1.08,4.39-1.94,6.35-2.83,7.99-3.64,15.96-7.3,23.96-10.92,7.29-3.31,14.6-6.57,21.89-9.88,7.99-3.63,16.02-7.18,23.94-10.96,5.98-2.85,12.04-5.51,18.07-8.26,1.26-.58,2.38-1.65,3.69-1.92,3.39-.71,5.68-2.94,7.75-5.36,1.06-1.24,1.5-3.01,2.31-4.73,0-.77-.13-1.79.02-2.76.8-5.07-1.29-8.85-5.2-11.82-1.12-.85-2.28-1.71-3.54-2.3-2.37-1.11-4.88-1.91-7.23-3.05-7.62-3.7-15.36-7.14-23.11-10.56-9.02-3.98-17.9-8.27-26.87-12.34-2.52-1.14-4.77-2.97-7.7-3.14-7.9-4.56-16.52-7.59-24.67-11.62-5.1-2.53-10.17-5.33-16.78-3.94-1.45.98-3.58,2.1-5.29,3.67-1.76,1.61-3.11,3.67-4.64,5.55Zm-183.81,49.12c4.81-2.23,8.57-4.01,12.36-5.73,7.85-3.56,15.73-7.05,23.58-10.62,6.03-2.74,12.02-5.56,18.03-8.34,1.4-.65,2.76-1.36,4.17-1.99,6.76-2.99,13.89-5.37,18.69-11.68,1.19-8.41,2.81-7.63-3.2-16.87-2.28-1.15-4.35-2.2-6.71-3.39h-5.58c-7.11,2.64-13.03,5.6-19.09,8.27-8.02,3.54-15.89,7.45-23.99,10.84-3.68,1.54-7.09,3.64-10.91,5.03-3.86,1.4-7.41,3.69-11.32,5.23-5.86,2.31-11.46,5.3-17.16,8.01-.98.47-1.86,1.33-2.87,1.48-3.2.48-5.68,2.43-8.42,3.82-2.89,1.46-5.96,2.48-8.8,4.13-3.8,2.21-4.72,6.19-6.75,9.46-1.23,1.97.27,4.19.94,5.91,1.48,3.78,3.6,7.27,7.99,8.75,2.16.73,4,2.38,6.02,3.55.93.54,1.97,1.32,2.93,1.27,2.27-.12,3.9,1.09,5.67,2.08,1.76.99,3.42,2.61,5.27,2.86,3.94.55,6.95,2.64,10.08,4.7.89.59,1.92,1.31,2.91,1.35,3.87.14,6.66,2.48,9.73,4.3.53.31,1.15.76,1.68.7,1.93-.19,3.29.91,4.78,1.77,1.88,1.09,3.66,2.79,5.67,3.13,4.05.69,7.3,2.6,10.5,4.93.95.69,2.29.96,3.5,1.14.99.14,1.75.36,2.64.95,1.65,1.08,4.28,1.24,5.27,2.65,1.58,2.25,3.91,1.02,5.72,2.23,2.66,1.78,5.97,2.56,8.52,4.7.33.28.86.5,1.28.48,2.67-.16,4.52,1.3,6.23,3h7.01c5.02-1.35,7.51-4.65,10.63-7.63.35-3.11.72-6.46.98-8.85-.67-1.62-.9-2.37-1.27-3.03-1.67-2.99-3.84-5.49-7-7-7.78-3.71-15.69-7.15-23.53-10.72-8.13-3.69-16.25-7.42-24.36-11.15-5.74-2.64-11.41-5.42-17.14-8.08-1.24-.58-2.59-.92-4.69-1.65Z" fill="#f05757"/>
    <path d="m224,.99c.26-.33.52-.95.79-.96,9.14-.05,18.28-.05,27.42,0,.26,0,.53.62.79.96-9.67,0-19.33,0-29,0Z" fill="#f05757"/>
  </g>
  <text transform="translate(570.86 345.88)" fill="#340e0e" font-family="Arial-BoldMT, Arial" font-size="300" font-weight="700" letter-spacing="-.03em"><tspan x="0" y="0">brodylosh</tspan></text>
</svg>