<?xml version="1.0" encoding="UTF-8"?>
<svg id="Layer_1" data-name="Layer 1" xmlns="http://www.w3.org/2000/svg" height="auto" width="auto" viewBox="0 0 1280 720">
  <path d="m1280,720H0V0h1280v720ZM368.46,366.15c18.61-9.98,36.39-19.62,54.27-29.07,22.83-12.07,45.79-23.89,68.6-36.01,9.83-5.22,19.31-11.03,21.28-23.45,1.75-11.05-4.5-25.33-19.44-24.46-6.25.36-12.68,2.74-18.42,5.49-12.85,6.17-25.28,13.2-37.93,19.78-19.37,10.08-38.75,20.13-58.17,30.11-17.84,9.16-35.91,17.9-53.54,27.45-8.3,4.49-16.45,9.71-23.5,15.93-9.02,7.95-9.25,20.39-1.02,29.21,4.34,4.65,9.67,8.81,15.32,11.73,54.3,28.08,108.73,55.91,163.22,83.61,3.82,1.94,8.4,3.28,12.64,3.33,16.73.19,23.71-13.56,20.43-28.78-1.83-8.46-8.4-13.32-15.56-17.18-15.62-8.41-31.33-16.65-47.02-24.93-26.74-14.1-53.49-28.18-81.17-42.77Zm543.1.11c-30.99,16.29-61.12,32.07-91.2,47.95-13.65,7.21-27.32,14.38-40.74,22-9.48,5.39-13.44,14-12.71,24.94.74,11.2,12.08,21.06,22.27,18.6,5.07-1.22,10.1-3.07,14.79-5.37,11.92-5.86,23.6-12.21,35.46-18.22,37.77-19.15,75.67-38.07,113.32-57.48,8.91-4.59,17.4-10.24,25.41-16.3,7.62-5.77,7.97-20.57,2.99-26.31-3.2-3.69-6.49-7.74-10.61-10.13-14.7-8.56-29.65-16.71-44.72-24.6-24.59-12.87-49.33-25.47-74.05-38.09-18.7-9.55-37.34-19.26-56.28-28.31-11.67-5.58-25.01-.98-27.93,13.39-2.46,12.06,2.83,23.56,15.78,30.39,39.57,20.88,79.21,41.64,118.82,62.45,2.92,1.53,5.79,3.13,9.41,5.09Zm-327.73,163.71c.2-.03,1.66-.19,3.1-.49,7.52-1.55,11.39-7.23,14.17-13.52,8.11-18.36,15.97-36.82,23.74-55.33,5.36-12.77,10.27-25.72,15.59-38.51,4.21-10.11,8.82-20.06,13.1-30.14,6.6-15.51,13.06-31.08,19.61-46.62,6.56-15.58,13.2-31.12,19.7-46.72,5.8-13.94,11.46-27.94,17.15-41.94,4.84-11.9,10.22-23.62,14.28-35.77,5.47-16.38-5.39-28.89-20.85-30.92-10.16-1.34-15.87,5.61-19.4,13.78-14.27,33.01-28.19,66.16-42.18,99.29-9.86,23.37-19.55,46.82-29.44,70.17-7.7,18.19-15.71,36.24-23.38,54.44-6.53,15.49-12.88,31.05-19.08,46.67-3.58,9.02-6.59,18.26-10.03,27.33-4.65,12.26,9.16,28.35,23.91,28.25Z" fill="#364a53"/>
  <path d="m368.46,366.15c27.69,14.59,54.44,28.67,81.17,42.77,15.69,8.28,31.4,16.51,47.02,24.93,7.15,3.86,13.73,8.72,15.56,17.18,3.28,15.22-3.7,28.97-20.43,28.78-4.24-.05-8.82-1.39-12.64-3.33-54.49-27.71-108.92-55.53-163.22-83.61-5.64-2.92-10.98-7.08-15.32-11.73-8.23-8.82-8.01-21.26,1.02-29.21,7.05-6.21,15.21-11.43,23.5-15.93,17.63-9.55,35.7-18.29,53.54-27.45,19.42-9.98,38.8-20.03,58.17-30.11,12.65-6.59,25.08-13.61,37.93-19.78,5.73-2.75,12.17-5.13,18.42-5.49,14.93-.87,21.19,13.41,19.44,24.46-1.97,12.42-11.45,18.23-21.28,23.45-22.81,12.12-45.77,23.94-68.6,36.01-17.88,9.45-35.66,19.09-54.27,29.07Z" fill="#fefeff"/>
  <path d="m911.57,366.26c-3.61-1.96-6.49-3.55-9.41-5.09-39.61-20.81-79.25-41.56-118.82-62.45-12.95-6.84-18.24-18.33-15.78-30.39,2.93-14.36,16.26-18.97,27.93-13.39,18.94,9.05,37.58,18.76,56.28,28.31,24.72,12.62,49.46,25.22,74.05,38.09,15.07,7.89,30.02,16.04,44.72,24.6,4.12,2.4,7.41,6.44,10.61,10.13,4.98,5.74,4.63,20.55-2.99,26.31-8.01,6.06-16.5,11.7-25.41,16.3-37.65,19.4-75.54,38.32-113.32,57.48-11.85,6.01-23.53,12.36-35.46,18.22-4.69,2.3-9.71,4.15-14.79,5.37-10.2,2.45-21.53-7.4-22.27-18.6-.73-10.95,3.23-19.55,12.71-24.94,13.41-7.63,27.09-14.8,40.74-22,30.08-15.88,60.21-31.67,91.2-47.95Z" fill="#fefeff"/>
  <path d="m583.84,529.97c-14.74.09-28.56-15.99-23.91-28.25,3.44-9.07,6.45-18.32,10.03-27.33,6.2-15.62,12.55-31.18,19.08-46.67,7.67-18.2,15.67-36.26,23.38-54.44,9.89-23.36,19.57-46.8,29.44-70.17,13.98-33.13,27.91-66.29,42.18-99.29,3.53-8.17,9.24-15.12,19.4-13.78,15.46,2.04,26.32,14.55,20.85,30.92-4.06,12.16-9.45,23.88-14.28,35.77-5.69,13.99-11.35,27.99-17.15,41.94-6.49,15.6-13.14,31.14-19.7,46.72-6.54,15.54-13.01,31.11-19.61,46.62-4.29,10.08-8.89,20.02-13.1,30.14-5.32,12.78-10.24,25.74-15.59,38.51-7.76,18.51-15.63,36.97-23.74,55.33-2.78,6.29-6.65,11.97-14.17,13.52-1.44.3-2.9.45-3.1.49Z" fill="#fff"/>
</svg>